HIERARCHY
ROOT Hips
{
	OFFSET 0.000000 0.000000 0.000000 
	CHANNELS 6 Xposition Yposition Zposition Zrotation Yrotation Xrotation
	JOINT LeftUpLeg
	{
		OFFSET 1.363060 -1.794630 0.839290 
		CHANNELS 3 Zrotation Yrotation Xrotation
		JOINT LeftLeg
		{
			OFFSET 2.448110 -6.726130 0.000000 
			CHANNELS 3 Zrotation Yrotation Xrotation
			JOINT LeftFoot
			{
				OFFSET 2.562200 -7.039590 0.000000 
				CHANNELS 3 Zrotation Yrotation Xrotation
				JOINT LeftToeBase
				{
					OFFSET 0.157640 -0.433110 2.322550 
					CHANNELS 3 Zrotation Yrotation Xrotation
					End Site
					{
						OFFSET 0.000000 0.000000 0.000000 
					}
				}
			}
		}
	}
	JOINT RightUpLeg
	{
		OFFSET -1.305520 -1.794630 0.839290 
		CHANNELS 3 Zrotation Yrotation Xrotation
		JOINT RightLeg
		{
			OFFSET -2.542530 -6.985550 0.000000 
			CHANNELS 3 Zrotation Yrotation Xrotation
			JOINT RightFoot
			{
				OFFSET -2.568260 -7.056230 0.000000 
				CHANNELS 3 Zrotation Yrotation Xrotation
				JOINT RightToeBase
				{
					OFFSET -0.164730 -0.452590 2.363150 
					CHANNELS 3 Zrotation Yrotation Xrotation
					End Site
					{
						OFFSET 0.000000 0.000000 0.000000 
					}
				}
			}
		}
	}
	JOINT Spine
	{
		OFFSET 0.028270 2.035590 -0.193380 
		CHANNELS 3 Zrotation Yrotation Xrotation
		JOINT Spine1
		{
			OFFSET 0.056720 2.048850 -0.042750 
			CHANNELS 3 Zrotation Yrotation Xrotation
			JOINT Neck1
			{
				OFFSET -0.054170 1.746240 0.172020 
				CHANNELS 3 Zrotation Yrotation Xrotation
				JOINT Head
				{
					OFFSET 0.104070 1.761360 -0.123970 
					CHANNELS 3 Zrotation Yrotation Xrotation
					End Site
					{
						OFFSET 0.000000 0.000000 0.000000 
					}
				}
			}
			JOINT LeftArm
			{
				OFFSET 3.362410 1.200890 -0.311210 
				CHANNELS 3 Zrotation Yrotation Xrotation
				JOINT LeftForeArm
				{
					OFFSET 4.983000 -0.000000 -0.000000 
					CHANNELS 3 Zrotation Yrotation Xrotation
					JOINT LeftHand
					{
						OFFSET 3.483560 -0.000000 -0.000000 
						CHANNELS 3 Zrotation Yrotation Xrotation
						JOINT LeftHandIndex1
						{
							OFFSET 0.715260 -0.000000 -0.000000 
							CHANNELS 3 Zrotation Yrotation Xrotation
							End Site
							{
								OFFSET 0.000000 0.000000 0.000000 
							}
						}
					}
				}
			}
			JOINT RightArm
			{
				OFFSET -3.136600 1.374050 -0.404650 
				CHANNELS 3 Zrotation Yrotation Xrotation
				JOINT RightForeArm
				{
					OFFSET -5.241900 -0.000000 -0.000000 
					CHANNELS 3 Zrotation Yrotation Xrotation
					JOINT RightHand
					{
						OFFSET -3.444170 -0.000000 -0.000000 
						CHANNELS 3 Zrotation Yrotation Xrotation
						JOINT RightHandIndex1
						{
							OFFSET -0.622530 -0.000000 -0.000000 
							CHANNELS 3 Zrotation Yrotation Xrotation
							End Site
							{
								OFFSET 0.000000 0.000000 0.000000 
							}
						}
					}
				}
			}
		}
	}
}
MOTION
Frames: 6
Frame Time: 0.041667
-32.606598 16.417599 -4.897418 -0.110432 61.215507 -9.850227 -24.065453 16.113650 -5.556610 3.859213 11.892310 37.426754 2.585477 -7.443452 -21.699485 0.027700 1.075100 2.955400 21.203379 1.509905 -27.784999 -8.916686 -17.486707 55.809777 -0.851721 0.102856 -16.652630 -0.006000 -0.499300 1.372100 -0.482553 8.020769 -2.303823 -0.248409 3.987909 1.526119 4.429796 -2.640906 9.584794 1.599700 -1.138800 6.423200 -26.968725 9.515184 15.353010 36.513165 -40.712950 -23.533108 -0.577148 -4.246444 -30.954869 -7.125000 0.000000 0.000000 63.364084 20.510901 55.988933 -16.631624 25.237627 -3.860804 0.345899 -0.888661 -0.186398 7.125000 0.000000 0.000000 
-32.366168 16.391034 -4.863694 1.861384 60.884992 -9.278887 -24.743231 17.618606 -3.196454 3.654947 11.480674 36.334251 2.555156 -7.667610 -21.337287 0.070200 1.709700 4.704000 19.272178 0.569204 -27.351900 -7.702954 -16.537488 51.500203 -1.080606 -0.696846 -19.862688 -0.019000 -0.890500 2.447600 -0.520835 7.885585 -2.417996 0.226720 3.890447 1.523312 4.252183 -2.430064 10.031696 1.533700 -1.047200 6.822600 -23.686590 7.852100 14.692897 35.403563 -39.700544 -22.867701 -0.654708 -4.513841 -30.136004 -7.125000 0.000000 0.000000 63.163579 22.531530 57.571852 -16.717050 25.046318 -3.774856 0.285726 -0.878515 0.215304 7.125000 0.000000 0.000000 
-32.129059 16.362187 -4.825818 3.539658 60.501878 -8.884690 -25.339948 18.892989 -0.845191 3.453712 11.078761 35.252660 2.519531 -7.633430 -21.139453 0.104200 2.081100 5.729900 17.508625 0.239329 -26.815241 -6.610856 -15.557209 47.391675 -1.327902 -1.581841 -22.916397 -0.050000 -1.442400 3.967000 -0.558584 7.761107 -2.532714 0.670692 3.799061 1.539978 4.097190 -2.194178 10.355342 1.476800 -0.941600 7.127700 -20.537327 6.140954 14.201828 34.626708 -38.858500 -22.444432 -0.699484 -4.776246 -29.599026 -7.125000 0.000000 0.000000 63.016722 24.541422 59.164570 -16.954483 25.005514 -3.743833 0.220515 -0.864843 0.601647 7.125000 0.000000 0.000000 
-31.894752 16.334066 -4.785972 4.812914 60.046151 -8.786586 -25.809284 19.984196 1.476891 3.263430 10.692495 34.208020 2.491435 -7.373951 -21.166959 0.118600 2.220200 6.114500 15.942334 0.534535 -26.162380 -5.705047 -14.630356 43.764091 -1.594038 -2.462473 -25.792697 -0.103500 -2.074300 5.711000 -0.590823 7.651404 -2.642948 1.071008 3.715567 1.580555 3.977692 -1.946153 10.540849 1.447300 -0.829800 7.310500 -17.547712 4.388808 13.867441 34.094630 -38.166311 -22.174355 -0.710154 -5.023406 -29.258131 -7.125000 0.000000 0.000000 62.923430 26.538909 60.686229 -17.308931 25.086289 -3.761685 0.156487 -0.854739 0.902831 7.125000 0.000000 0.000000 
-31.662831 16.309369 -4.746955 5.640649 59.526021 -9.053674 -26.116149 20.952014 3.768860 3.089662 10.325240 33.220160 2.469225 -6.879932 -21.416930 0.116100 2.196500 6.049100 14.577992 1.389407 -25.393834 -4.998120 -13.816928 40.751579 -1.906519 -3.255288 -28.646117 -0.182400 -2.751000 7.586200 -0.613170 7.543528 -2.744064 1.417678 3.632308 1.645946 3.898034 -1.708682 10.602035 1.451200 -0.723000 7.380300 -14.745644 2.596635 13.641424 33.708002 -37.586960 -21.958001 -0.696912 -5.241054 -28.983442 -7.125000 0.000000 0.000000 62.882906 28.533982 62.094923 -17.753798 25.262441 -3.822869 0.100195 -0.854508 1.051056 7.125000 0.000000 0.000000 
-31.433608 16.287371 -4.711466 6.088385 58.993892 -9.605995 -26.269637 21.829059 5.987067 2.941040 9.992097 32.337813 2.443548 -6.248578 -21.752910 0.100900 2.048100 5.638600 13.391343 2.606720 -24.577574 -4.459613 -13.130386 38.317914 -2.298755 -3.951977 -31.663228 -0.289100 -3.457500 9.555100 -0.623464 7.406575 -2.835776 1.711016 3.532822 1.725176 3.855054 -1.499964 10.573809 1.484100 -0.629100 7.368000 -12.155384 0.770284 13.479308 33.376721 -37.081883 -21.704940 -0.676783 -5.417085 -28.673953 -7.125000 0.000000 0.000000 62.896969 30.520235 63.367986 -18.268279 25.510854 -3.921933 0.054579 -0.867300 1.028558 7.125000 0.000000 0.000000 
